<svg xmlns="http://www.w3.org/2000/svg" xmlns:xlink="http://www.w3.org/1999/xlink" width="1920" zoomAndPan="magnify" viewBox="0 0 1440 809.999993" height="1080" preserveAspectRatio="xMidYMid meet" version="1.2"><defs><filter x="0%" y="0%" width="100%" filterUnits="objectBoundingBox" id="a91cbce5c5" height="100%"><feColorMatrix values="0 0 0 0 1 0 0 0 0 1 0 0 0 0 1 0 0 0 1 0" type="matrix" in="SourceGraphic"/></filter><clipPath id="f1b40963d5"><path d="M 0 0 L 505 0 L 505 349.679688 L 0 349.679688 Z M 0 0 "/></clipPath><clipPath id="07b4597d82"><rect x="0" width="506" y="0" height="350"/></clipPath><clipPath id="8288467df0"><path d="M 48 168 L 649 168 L 649 546 L 48 546 Z M 48 168 "/></clipPath><clipPath id="ecaeb90b3f"><path d="M 860.003906 157.644531 L 580.476562 889.855469 L -57.140625 646.4375 L 222.386719 -85.769531 Z M 860.003906 157.644531 "/></clipPath><clipPath id="9c910e5ac7"><path d="M 860.003906 157.644531 L 580.476562 889.855469 L -57.140625 646.4375 L 222.386719 -85.769531 Z M 860.003906 157.644531 "/></clipPath><clipPath id="206972cdb9"><rect x="0" width="649" y="0" height="546"/></clipPath><clipPath id="efea4478ce"><path d="M 0 42 L 337 42 L 337 430 L 0 430 Z M 0 42 "/></clipPath><clipPath id="48320c4318"><path d="M 284.753906 -8.984375 L 366.230469 401.507812 L -284.816406 530.734375 L -366.296875 120.242188 Z M 284.753906 -8.984375 "/></clipPath><clipPath id="30d7b55cf1"><path d="M 284.753906 -8.984375 L 366.230469 401.507812 L -284.816406 530.734375 L -366.296875 120.242188 Z M 284.753906 -8.984375 "/></clipPath><clipPath id="d8fda1b11b"><path d="M 1104 305 L 1440 305 L 1440 810 L 1104 810 Z M 1104 305 "/></clipPath><clipPath id="b4e3108988"><path d="M 1642.25 135.234375 L 1998.164062 509.875 L 1403.855469 1074.484375 L 1047.9375 699.84375 Z M 1642.25 135.234375 "/></clipPath><clipPath id="161e840a70"><path d="M 1642.25 135.234375 L 1998.164062 509.875 L 1403.855469 1074.484375 L 1047.9375 699.84375 Z M 1642.25 135.234375 "/></clipPath></defs><g id="42c48ed23f"><rect x="0" width="1440" y="0" height="809.999993" style="fill:#ffffff;fill-opacity:1;stroke:none;"/><rect x="0" width="1440" y="0" height="809.999993" style="fill:#b7cdb7;fill-opacity:1;stroke:none;"/><g style="fill:#ffffff;fill-opacity:1;"><g transform="translate(391.688601, 446.999998)"><path style="stroke:none" d="M 115.5625 0 C 115.5625 0 116.101562 -0.390625 117.1875 -1.171875 C 118.269531 -1.953125 119.351562 -3.207031 120.4375 -4.9375 C 121.519531 -6.675781 122.0625 -8.882812 122.0625 -11.5625 L 122.0625 -81.515625 L 115.5625 -81.515625 L 82.9375 0 L 59.40625 0 L 26.78125 -81.515625 L 20.28125 -81.515625 L 20.28125 -11.703125 C 20.28125 -9.097656 20.820312 -6.925781 21.90625 -5.1875 C 22.988281 -3.457031 24.070312 -2.160156 25.15625 -1.296875 C 26.238281 -0.429688 26.78125 0 26.78125 0 L 3.90625 0 C 3.90625 0 4.445312 -0.472656 5.53125 -1.421875 C 6.613281 -2.378906 7.695312 -3.722656 8.78125 -5.453125 C 9.863281 -7.191406 10.40625 -9.226562 10.40625 -11.5625 L 10.40625 -91 L 33.546875 -91 L 66.171875 -9.484375 L 76.1875 -9.484375 L 108.8125 -91 L 131.953125 -91 L 131.953125 -11.703125 C 131.953125 -8.835938 132.492188 -6.535156 133.578125 -4.796875 C 134.660156 -3.066406 135.742188 -1.832031 136.828125 -1.09375 C 137.910156 -0.363281 138.453125 0 138.453125 0 Z M 115.5625 0 "/></g></g><g style="fill:#ffffff;fill-opacity:1;"><g transform="translate(534.164346, 446.999998)"><path style="stroke:none" d="M 75.796875 -25.09375 L 80.078125 -22.359375 C 80.078125 -22.359375 79.726562 -21.578125 79.03125 -20.015625 C 78.34375 -18.460938 77.195312 -16.492188 75.59375 -14.109375 C 73.988281 -11.722656 71.863281 -9.359375 69.21875 -7.015625 C 66.582031 -4.679688 63.269531 -2.710938 59.28125 -1.109375 C 55.289062 0.492188 50.609375 1.296875 45.234375 1.296875 C 38.304688 1.296875 32.457031 0.410156 27.6875 -1.359375 C 22.925781 -3.140625 19.023438 -5.457031 15.984375 -8.3125 C 12.953125 -11.175781 10.613281 -14.234375 8.96875 -17.484375 C 7.320312 -20.734375 6.171875 -23.851562 5.515625 -26.84375 C 4.867188 -29.832031 4.546875 -32.367188 4.546875 -34.453125 C 4.546875 -38.085938 5.148438 -41.960938 6.359375 -46.078125 C 7.578125 -50.203125 9.59375 -54.101562 12.40625 -57.78125 C 15.226562 -61.46875 19.066406 -64.457031 23.921875 -66.75 C 28.773438 -69.050781 34.84375 -70.203125 42.125 -70.203125 C 49.570312 -70.203125 55.65625 -69.351562 60.375 -67.65625 C 65.101562 -65.96875 68.765625 -63.867188 71.359375 -61.359375 C 73.960938 -58.847656 75.785156 -56.289062 76.828125 -53.6875 C 77.867188 -51.09375 78.390625 -48.925781 78.390625 -47.1875 C 78.390625 -44.757812 77.671875 -42.203125 76.234375 -39.515625 C 74.804688 -36.828125 72.359375 -34.570312 68.890625 -32.75 C 65.429688 -30.9375 60.710938 -30.03125 54.734375 -30.03125 C 50.742188 -30.03125 46.664062 -30.265625 42.5 -30.734375 C 38.34375 -31.210938 34.378906 -31.800781 30.609375 -32.5 C 26.835938 -33.195312 23.546875 -33.847656 20.734375 -34.453125 C 17.921875 -35.054688 15.863281 -35.53125 14.5625 -35.875 C 14.5625 -32.664062 15.144531 -29.4375 16.3125 -26.1875 C 17.476562 -22.9375 19.316406 -19.945312 21.828125 -17.21875 C 24.347656 -14.488281 27.515625 -12.300781 31.328125 -10.65625 C 35.140625 -9.007812 39.691406 -8.1875 44.984375 -8.1875 C 50.785156 -8.1875 55.679688 -9.03125 59.671875 -10.71875 C 63.660156 -12.414062 66.820312 -14.390625 69.15625 -16.640625 C 71.5 -18.890625 73.191406 -20.859375 74.234375 -22.546875 C 75.273438 -24.242188 75.796875 -25.09375 75.796875 -25.09375 Z M 42.125 -60.703125 C 37.175781 -60.703125 32.816406 -59.726562 29.046875 -57.78125 C 25.285156 -55.832031 22.210938 -53.34375 19.828125 -50.3125 C 17.441406 -47.28125 15.898438 -44.113281 15.203125 -40.8125 C 16.421875 -40.5625 18.546875 -40.175781 21.578125 -39.65625 C 24.609375 -39.132812 28.117188 -38.613281 32.109375 -38.09375 C 36.097656 -37.570312 40.210938 -37.222656 44.453125 -37.046875 C 48.703125 -36.878906 52.644531 -37.078125 56.28125 -37.640625 C 59.925781 -38.203125 62.875 -39.257812 65.125 -40.8125 C 67.382812 -42.375 68.515625 -44.585938 68.515625 -47.453125 C 68.515625 -49.273438 67.5625 -51.222656 65.65625 -53.296875 C 63.75 -55.378906 60.863281 -57.132812 57 -58.5625 C 53.144531 -59.988281 48.1875 -60.703125 42.125 -60.703125 Z M 42.125 -60.703125 "/></g></g><g style="fill:#ffffff;fill-opacity:1;"><g transform="translate(618.531823, 446.999998)"><path style="stroke:none" d="M 47.453125 -70.328125 C 52.734375 -70.328125 57 -68.851562 60.25 -65.90625 C 63.5 -62.957031 65.90625 -59.015625 67.46875 -54.078125 C 69.03125 -49.140625 69.894531 -43.679688 70.0625 -37.703125 L 60.1875 -38.734375 C 60.1875 -45.671875 59.273438 -51.085938 57.453125 -54.984375 C 55.640625 -58.890625 52.304688 -60.84375 47.453125 -60.84375 C 41.816406 -60.84375 36.960938 -59.691406 32.890625 -57.390625 C 28.816406 -55.097656 25.675781 -52.046875 23.46875 -48.234375 C 21.257812 -44.421875 20.15625 -40.171875 20.15625 -35.484375 L 20.015625 -11.703125 C 20.015625 -9.097656 20.554688 -6.925781 21.640625 -5.1875 C 22.722656 -3.457031 23.804688 -2.160156 24.890625 -1.296875 C 25.972656 -0.429688 26.515625 0 26.515625 0 L 3.640625 0 C 3.640625 0 4.179688 -0.429688 5.265625 -1.296875 C 6.347656 -2.160156 7.429688 -3.457031 8.515625 -5.1875 C 9.597656 -6.925781 10.140625 -9.097656 10.140625 -11.703125 L 10.140625 -57.203125 C 10.140625 -59.796875 9.597656 -61.957031 8.515625 -63.6875 C 7.429688 -65.425781 6.347656 -66.726562 5.265625 -67.59375 C 4.179688 -68.46875 3.640625 -68.90625 3.640625 -68.90625 L 20.15625 -68.90625 L 20.15625 -51.484375 C 22.925781 -57.117188 26.628906 -61.664062 31.265625 -65.125 C 35.898438 -68.59375 41.296875 -70.328125 47.453125 -70.328125 Z M 47.453125 -70.328125 "/></g></g><g style="fill:#ffffff;fill-opacity:1;"><g transform="translate(691.719624, 446.999998)"><path style="stroke:none" d="M 75.40625 -29.640625 L 79.5625 -26.90625 C 79.5625 -26.90625 79.234375 -25.953125 78.578125 -24.046875 C 77.929688 -22.140625 76.804688 -19.773438 75.203125 -16.953125 C 73.597656 -14.140625 71.34375 -11.347656 68.4375 -8.578125 C 65.539062 -5.804688 61.898438 -3.46875 57.515625 -1.5625 C 53.140625 0.34375 47.789062 1.296875 41.46875 1.296875 C 34.1875 1.296875 27.769531 -0.300781 22.21875 -3.5 C 16.675781 -6.707031 12.34375 -11.019531 9.21875 -16.4375 C 6.101562 -21.851562 4.546875 -27.859375 4.546875 -34.453125 C 4.546875 -41.035156 6 -47.035156 8.90625 -52.453125 C 11.8125 -57.867188 16.015625 -62.203125 21.515625 -65.453125 C 27.015625 -68.703125 33.664062 -70.328125 41.46875 -70.328125 C 48.226562 -70.328125 54.378906 -68.984375 59.921875 -66.296875 C 65.472656 -63.609375 69.875 -59.96875 73.125 -55.375 C 76.375 -50.78125 78 -45.671875 78 -40.046875 L 67.59375 -41.078125 C 67.59375 -44.628906 66.488281 -47.878906 64.28125 -50.828125 C 62.070312 -53.773438 58.972656 -56.15625 54.984375 -57.96875 C 51.003906 -59.789062 46.410156 -60.703125 41.203125 -60.703125 C 35.578125 -60.703125 30.769531 -59.53125 26.78125 -57.1875 C 22.789062 -54.851562 19.753906 -51.691406 17.671875 -47.703125 C 15.597656 -43.722656 14.5625 -39.304688 14.5625 -34.453125 C 14.5625 -30.023438 15.75 -25.816406 18.125 -21.828125 C 20.507812 -17.847656 23.757812 -14.578125 27.875 -12.015625 C 32 -9.460938 36.53125 -8.1875 41.46875 -8.1875 C 46.757812 -8.1875 51.332031 -8.921875 55.1875 -10.390625 C 59.039062 -11.867188 62.265625 -13.671875 64.859375 -15.796875 C 67.460938 -17.921875 69.519531 -20.039062 71.03125 -22.15625 C 72.550781 -24.28125 73.660156 -26.054688 74.359375 -27.484375 C 75.054688 -28.921875 75.40625 -29.640625 75.40625 -29.640625 Z M 75.40625 -29.640625 "/></g></g><g style="fill:#ffffff;fill-opacity:1;"><g transform="translate(775.307129, 446.999998)"><path style="stroke:none" d="M 47.453125 -70.328125 C 52.734375 -70.328125 57 -68.851562 60.25 -65.90625 C 63.5 -62.957031 65.90625 -59.015625 67.46875 -54.078125 C 69.03125 -49.140625 69.894531 -43.679688 70.0625 -37.703125 L 60.1875 -38.734375 C 60.1875 -45.671875 59.273438 -51.085938 57.453125 -54.984375 C 55.640625 -58.890625 52.304688 -60.84375 47.453125 -60.84375 C 41.816406 -60.84375 36.960938 -59.691406 32.890625 -57.390625 C 28.816406 -55.097656 25.675781 -52.046875 23.46875 -48.234375 C 21.257812 -44.421875 20.15625 -40.171875 20.15625 -35.484375 L 20.015625 -11.703125 C 20.015625 -9.097656 20.554688 -6.925781 21.640625 -5.1875 C 22.722656 -3.457031 23.804688 -2.160156 24.890625 -1.296875 C 25.972656 -0.429688 26.515625 0 26.515625 0 L 3.640625 0 C 3.640625 0 4.179688 -0.429688 5.265625 -1.296875 C 6.347656 -2.160156 7.429688 -3.457031 8.515625 -5.1875 C 9.597656 -6.925781 10.140625 -9.097656 10.140625 -11.703125 L 10.140625 -57.203125 C 10.140625 -59.796875 9.597656 -61.957031 8.515625 -63.6875 C 7.429688 -65.425781 6.347656 -66.726562 5.265625 -67.59375 C 4.179688 -68.46875 3.640625 -68.90625 3.640625 -68.90625 L 20.15625 -68.90625 L 20.15625 -51.484375 C 22.925781 -57.117188 26.628906 -61.664062 31.265625 -65.125 C 35.898438 -68.59375 41.296875 -70.328125 47.453125 -70.328125 Z M 47.453125 -70.328125 "/></g></g><g style="fill:#ffffff;fill-opacity:1;"><g transform="translate(848.494976, 446.999998)"><path style="stroke:none" d="M 75.796875 -25.09375 L 80.078125 -22.359375 C 80.078125 -22.359375 79.726562 -21.578125 79.03125 -20.015625 C 78.34375 -18.460938 77.195312 -16.492188 75.59375 -14.109375 C 73.988281 -11.722656 71.863281 -9.359375 69.21875 -7.015625 C 66.582031 -4.679688 63.269531 -2.710938 59.28125 -1.109375 C 55.289062 0.492188 50.609375 1.296875 45.234375 1.296875 C 38.304688 1.296875 32.457031 0.410156 27.6875 -1.359375 C 22.925781 -3.140625 19.023438 -5.457031 15.984375 -8.3125 C 12.953125 -11.175781 10.613281 -14.234375 8.96875 -17.484375 C 7.320312 -20.734375 6.171875 -23.851562 5.515625 -26.84375 C 4.867188 -29.832031 4.546875 -32.367188 4.546875 -34.453125 C 4.546875 -38.085938 5.148438 -41.960938 6.359375 -46.078125 C 7.578125 -50.203125 9.59375 -54.101562 12.40625 -57.78125 C 15.226562 -61.46875 19.066406 -64.457031 23.921875 -66.75 C 28.773438 -69.050781 34.84375 -70.203125 42.125 -70.203125 C 49.570312 -70.203125 55.65625 -69.351562 60.375 -67.65625 C 65.101562 -65.96875 68.765625 -63.867188 71.359375 -61.359375 C 73.960938 -58.847656 75.785156 -56.289062 76.828125 -53.6875 C 77.867188 -51.09375 78.390625 -48.925781 78.390625 -47.1875 C 78.390625 -44.757812 77.671875 -42.203125 76.234375 -39.515625 C 74.804688 -36.828125 72.359375 -34.570312 68.890625 -32.75 C 65.429688 -30.9375 60.710938 -30.03125 54.734375 -30.03125 C 50.742188 -30.03125 46.664062 -30.265625 42.5 -30.734375 C 38.34375 -31.210938 34.378906 -31.800781 30.609375 -32.5 C 26.835938 -33.195312 23.546875 -33.847656 20.734375 -34.453125 C 17.921875 -35.054688 15.863281 -35.53125 14.5625 -35.875 C 14.5625 -32.664062 15.144531 -29.4375 16.3125 -26.1875 C 17.476562 -22.9375 19.316406 -19.945312 21.828125 -17.21875 C 24.347656 -14.488281 27.515625 -12.300781 31.328125 -10.65625 C 35.140625 -9.007812 39.691406 -8.1875 44.984375 -8.1875 C 50.785156 -8.1875 55.679688 -9.03125 59.671875 -10.71875 C 63.660156 -12.414062 66.820312 -14.390625 69.15625 -16.640625 C 71.5 -18.890625 73.191406 -20.859375 74.234375 -22.546875 C 75.273438 -24.242188 75.796875 -25.09375 75.796875 -25.09375 Z M 42.125 -60.703125 C 37.175781 -60.703125 32.816406 -59.726562 29.046875 -57.78125 C 25.285156 -55.832031 22.210938 -53.34375 19.828125 -50.3125 C 17.441406 -47.28125 15.898438 -44.113281 15.203125 -40.8125 C 16.421875 -40.5625 18.546875 -40.175781 21.578125 -39.65625 C 24.609375 -39.132812 28.117188 -38.613281 32.109375 -38.09375 C 36.097656 -37.570312 40.210938 -37.222656 44.453125 -37.046875 C 48.703125 -36.878906 52.644531 -37.078125 56.28125 -37.640625 C 59.925781 -38.203125 62.875 -39.257812 65.125 -40.8125 C 67.382812 -42.375 68.515625 -44.585938 68.515625 -47.453125 C 68.515625 -49.273438 67.5625 -51.222656 65.65625 -53.296875 C 63.75 -55.378906 60.863281 -57.132812 57 -58.5625 C 53.144531 -59.988281 48.1875 -60.703125 42.125 -60.703125 Z M 42.125 -60.703125 "/></g></g><g style="fill:#ffffff;fill-opacity:1;"><g transform="translate(932.862419, 446.999998)"><path style="stroke:none" d="M 59.15625 0 C 59.15625 0 59.695312 -0.429688 60.78125 -1.296875 C 61.863281 -2.160156 62.945312 -3.457031 64.03125 -5.1875 C 65.113281 -6.925781 65.65625 -9.097656 65.65625 -11.703125 C 65.65625 -11.703125 65.65625 -12.21875 65.65625 -13.25 C 65.65625 -14.289062 65.65625 -15.769531 65.65625 -17.6875 C 62.96875 -12.050781 59.257812 -7.476562 54.53125 -3.96875 C 49.8125 -0.457031 44.375 1.296875 38.21875 1.296875 C 33.707031 1.296875 29.4375 0.363281 25.40625 -1.5 C 21.382812 -3.363281 17.8125 -5.921875 14.6875 -9.171875 C 11.570312 -12.421875 9.101562 -16.210938 7.28125 -20.546875 C 5.457031 -24.878906 4.546875 -29.515625 4.546875 -34.453125 C 4.546875 -39.390625 5.457031 -44.023438 7.28125 -48.359375 C 9.101562 -52.691406 11.570312 -56.503906 14.6875 -59.796875 C 17.8125 -63.085938 21.382812 -65.664062 25.40625 -67.53125 C 29.4375 -69.394531 33.707031 -70.328125 38.21875 -70.328125 C 44.375 -70.328125 49.8125 -68.570312 54.53125 -65.0625 C 59.257812 -61.550781 62.96875 -56.976562 65.65625 -51.34375 C 65.65625 -57.9375 65.65625 -64.457031 65.65625 -70.90625 C 65.65625 -77.363281 65.65625 -82.9375 65.65625 -87.625 C 65.65625 -90.21875 65.113281 -92.378906 64.03125 -94.109375 C 62.945312 -95.847656 61.863281 -97.148438 60.78125 -98.015625 C 59.695312 -98.878906 59.15625 -99.3125 59.15625 -99.3125 L 75.65625 -99.1875 L 75.65625 -11.703125 C 75.65625 -9.097656 76.195312 -6.925781 77.28125 -5.1875 C 78.363281 -3.457031 79.425781 -2.160156 80.46875 -1.296875 C 81.507812 -0.429688 82.03125 0 82.03125 0 Z M 38.21875 -8.1875 C 44.375 -8.1875 49.488281 -9.441406 53.5625 -11.953125 C 57.632812 -14.472656 60.664062 -17.742188 62.65625 -21.765625 C 64.65625 -25.796875 65.65625 -30.023438 65.65625 -34.453125 C 65.65625 -39.304688 64.632812 -43.722656 62.59375 -47.703125 C 60.5625 -51.691406 57.503906 -54.878906 53.421875 -57.265625 C 49.347656 -59.648438 44.28125 -60.84375 38.21875 -60.84375 C 34.0625 -60.84375 30.179688 -59.582031 26.578125 -57.0625 C 22.984375 -54.550781 20.082031 -51.300781 17.875 -47.3125 C 15.664062 -43.332031 14.5625 -39.046875 14.5625 -34.453125 C 14.5625 -29.773438 15.6875 -25.441406 17.9375 -21.453125 C 20.1875 -17.460938 23.128906 -14.253906 26.765625 -11.828125 C 30.410156 -9.398438 34.226562 -8.1875 38.21875 -8.1875 Z M 38.21875 -8.1875 "/></g></g><g style="fill:#ffffff;fill-opacity:1;"><g transform="translate(1018.39986, 446.999998)"><path style="stroke:none" d="M 3.640625 0 C 3.640625 0 4.179688 -0.429688 5.265625 -1.296875 C 6.347656 -2.160156 7.429688 -3.457031 8.515625 -5.1875 C 9.597656 -6.925781 10.140625 -9.097656 10.140625 -11.703125 L 10.140625 -57.203125 C 10.140625 -59.796875 9.597656 -61.957031 8.515625 -63.6875 C 7.429688 -65.425781 6.347656 -66.726562 5.265625 -67.59375 C 4.179688 -68.46875 3.640625 -68.90625 3.640625 -68.90625 L 20.15625 -68.90625 L 20.015625 -11.703125 C 20.015625 -9.097656 20.554688 -6.925781 21.640625 -5.1875 C 22.722656 -3.457031 23.804688 -2.160156 24.890625 -1.296875 C 25.972656 -0.429688 26.515625 0 26.515625 0 Z M 14.953125 -75.53125 C 13.046875 -75.53125 11.765625 -76.351562 11.109375 -78 C 10.460938 -79.644531 10.140625 -81.640625 10.140625 -83.984375 C 10.140625 -86.316406 10.460938 -88.304688 11.109375 -89.953125 C 11.765625 -91.609375 13.046875 -92.4375 14.953125 -92.4375 C 16.859375 -92.4375 18.175781 -91.609375 18.90625 -89.953125 C 19.644531 -88.304688 20.015625 -86.316406 20.015625 -83.984375 C 20.015625 -81.640625 19.644531 -79.644531 18.90625 -78 C 18.175781 -76.351562 16.859375 -75.53125 14.953125 -75.53125 Z M 14.953125 -75.53125 "/></g></g><g mask="url(#305bccc40f)" transform="matrix(1,0,0,1,0,0.000000000000039746)"><g clip-path="url(#07b4597d82)"><g clip-rule="nonzero" clip-path="url(#f1b40963d5)"><path style=" stroke:none;fill-rule:nonzero;fill:#b7cdb7;fill-opacity:1;" d="M 27.097656 -257.996094 C 110.34375 -294.992188 395.960938 -212.984375 454.414062 -114.078125 C 512.871094 -15.171875 517.433594 52.410156 481.421875 151.4375 C 445.410156 250.464844 355.878906 322.363281 265.730469 335.804688 C 175.582031 349.25 45.105469 376.257812 -35.917969 277.351562 C -116.941406 178.445312 -148.390625 169.320312 -152.832031 128.867188 C -157.269531 88.417969 -179.839844 -37.496094 -121.382812 -127.519531 C -62.925781 -217.546875 -53.925781 -221.988281 27.097656 -257.996094 Z M 27.097656 -257.996094 "/></g></g><mask id="305bccc40f"><g filter="url(#a91cbce5c5)"><rect x="0" width="1440" y="0" height="809.999993" style="fill:#000000;fill-opacity:0.22;stroke:none;"/></g></mask></g><g mask="url(#8c48b1a2b0)" transform="matrix(1,0,0,1,791,264)"><g clip-path="url(#206972cdb9)"><g clip-rule="nonzero" clip-path="url(#8288467df0)"><g clip-rule="nonzero" clip-path="url(#ecaeb90b3f)"><g clip-rule="nonzero" clip-path="url(#9c910e5ac7)"><path style=" stroke:none;fill-rule:nonzero;fill:#b7cdb7;fill-opacity:1;" d="M 541.597656 644.800781 C 415.851562 708.734375 12.347656 672.425781 50.980469 448.316406 C 77.050781 296.722656 189.8125 374.539062 387.511719 318.710938 C 452.960938 300.164062 621.496094 67.132812 724.578125 221.390625 C 785.640625 312.828125 705.972656 561.128906 541.597656 644.800781 Z M 541.597656 644.800781 "/></g></g></g></g><mask id="8c48b1a2b0"><g filter="url(#a91cbce5c5)"><rect x="0" width="1440" y="0" height="809.999993" style="fill:#000000;fill-opacity:0.22;stroke:none;"/></g></mask></g><g clip-rule="nonzero" clip-path="url(#efea4478ce)"><g clip-rule="nonzero" clip-path="url(#48320c4318)"><g clip-rule="nonzero" clip-path="url(#30d7b55cf1)"><path style=" stroke:none;fill-rule:nonzero;fill:#4f674f;fill-opacity:1;" d="M 240.511719 426.460938 C 189.59375 435.054688 137.316406 427.257812 91.105469 404.25 C 77.351562 397.894531 64.179688 390.667969 50.9375 383.074219 C 27.144531 370.003906 0.277344 364.355469 -26.890625 366.722656 C -45.605469 367.785156 -63.890625 371.035156 -82.609375 372.101562 C -117.351562 374.453125 -152.164062 376.441406 -186.597656 368.890625 C -239.019531 358.476562 -285.367188 329.058594 -317.347656 286.191406 C -329.121094 270.734375 -338.421875 254.40625 -341.886719 235.03125 C -345.5 214.925781 -345.105469 194.027344 -340.34375 174.152344 C -339.023438 169.347656 -337.707031 164.542969 -335.660156 159.59375 C -330.03125 144.089844 -316.324219 133.039062 -300.082031 130.949219 C -279.464844 127.996094 -258.710938 127.660156 -238.175781 130.019531 C -196.527344 133.867188 -154.285156 131.164062 -113.34375 121.902344 C -97.097656 117.917969 -81.355469 111.386719 -66.851562 102.449219 C -39.15625 87.488281 -11.167969 72.089844 16.3125 56.035156 C 46.484375 38.308594 76.710938 37.988281 107.859375 51.871094 C 114.554688 55.085938 121.25 58.300781 127.652344 61.949219 C 151.449219 75.019531 174.878906 88.164062 198.671875 101.234375 C 228.507812 118.027344 257.101562 136.203125 280.003906 161.945312 C 297.019531 180.902344 312.136719 201.753906 324.847656 223.835938 C 332.332031 236.738281 336.386719 251.457031 336.292969 266.238281 C 336.488281 282.480469 337.484375 298.9375 336.515625 315.03125 C 336.121094 334.039062 329.976562 352.675781 318.738281 368.535156 C 303.851562 388.902344 287.367188 406.941406 264.121094 417.613281 C 255.449219 421.605469 245.757812 424.285156 240.511719 426.460938 Z M -123.183594 127.640625 C -163.320312 135.226562 -204.25 136.917969 -245.171875 132.925781 C -263.8125 130.566406 -282.601562 131.269531 -300.886719 134.519531 C -315.601562 136.683594 -327.632812 146.640625 -332.894531 160.179688 C -337.207031 170.878906 -339.917969 182.015625 -340.664062 193.523438 C -342.738281 217.40625 -341.75 241.441406 -329.546875 262.867188 C -300.128906 313.816406 -257.429688 347.742188 -200.210938 363.265625 C -161.335938 374.097656 -122.226562 372.773438 -82.679688 369.84375 C -64.03125 368.414062 -45.3125 365.457031 -26.230469 364.320312 C 1.664062 361.808594 29.402344 368.039062 53.707031 381.765625 C 63.09375 387.097656 72.773438 391.992188 82.523438 397.25 C 122.402344 418.863281 167.246094 429.269531 212.621094 427.078125 C 228.789062 426.519531 244.8125 423.335938 259.824219 416.949219 C 283.4375 406.207031 300.503906 389.191406 315.753906 368.746094 C 327.429688 353.179688 333.9375 334.472656 334.257812 315.101562 C 334.863281 299.082031 333.867188 282.621094 333.742188 266.746094 C 333.765625 251.597656 329.78125 237.246094 322.371094 224.707031 C 309.367188 203.058594 294.757812 182.867188 278.179688 164.199219 C 256.222656 139.40625 228.429688 121.449219 200.199219 105.097656 C 176.257812 91.296875 151.660156 78.007812 127.429688 64.644531 C 120.664062 61.066406 114.257812 57.417969 107.199219 54.273438 C 76.851562 40.613281 47.355469 40.789062 18.273438 58.296875 C -7.164062 73.1875 -32.890625 86.625 -58.035156 101.078125 C -78.371094 113.066406 -99.433594 123.304688 -123.183594 127.640625 Z M -123.183594 127.640625 "/></g></g></g><g clip-rule="nonzero" clip-path="url(#d8fda1b11b)"><g clip-rule="nonzero" clip-path="url(#b4e3108988)"><g clip-rule="nonzero" clip-path="url(#161e840a70)"><path style=" stroke:none;fill-rule:nonzero;fill:#4f674f;fill-opacity:1;" d="M 1883.429688 618.878906 C 1835.957031 661.445312 1776.253906 687.808594 1712.84375 694.292969 C 1694.296875 696.734375 1675.78125 697.882812 1656.949219 698.695312 C 1623.488281 700.757812 1591.726562 712.59375 1564.933594 732.988281 C 1546.101562 746.449219 1529.164062 761.910156 1510.332031 775.371094 C 1475.628906 800.753906 1440.605469 825.800781 1399.683594 840.644531 C 1338.105469 864.363281 1270.320312 864.25 1208.65625 840.613281 C 1186.167969 832.253906 1165.691406 821.351562 1149.285156 803.417969 C 1132.25 784.816406 1118.867188 762.746094 1110.722656 738.859375 C 1108.929688 732.976562 1107.132812 727.09375 1106.003906 720.578125 C 1101.648438 700.679688 1108.660156 680.105469 1124.234375 667.207031 C 1143.796875 650.515625 1165.238281 636.472656 1188.226562 625.386719 C 1234.234375 601.914062 1276.535156 571.214844 1313.152344 534.53125 C 1327.480469 519.65625 1339.59375 502.453125 1348.835938 483.554688 C 1367.867188 449.664062 1386.914062 415.125 1405 380.234375 C 1424.792969 341.824219 1456.125 321.546875 1497.792969 315.476562 C 1506.902344 314.414062 1516.011719 313.351562 1525.101562 312.933594 C 1558.5625 310.875 1591.6875 309.128906 1625.148438 307.066406 C 1667.363281 304.90625 1709.199219 305.003906 1750.089844 316.753906 C 1780.355469 325.316406 1809.890625 337.097656 1837.734375 351.757812 C 1854.054688 360.285156 1868 372.96875 1877.65625 388.457031 C 1888.578125 405.277344 1900.480469 421.800781 1910.085938 439.234375 C 1922.21875 459.332031 1928.105469 482.832031 1926.839844 506.800781 C 1924.746094 537.882812 1919.445312 567.585938 1902.226562 594.0625 C 1895.8125 603.953125 1887.46875 613.144531 1883.429688 618.878906 Z M 1306.667969 547.015625 C 1269.785156 581.421875 1228.183594 610.191406 1182.839844 633.03125 C 1161.832031 642.871094 1142.683594 656.003906 1125.746094 671.460938 C 1111.820312 683.429688 1105.835938 701.761719 1109.277344 719.363281 C 1111.835938 733.375 1116.359375 746.789062 1123.171875 759.289062 C 1136.769531 785.582031 1153.65625 810.015625 1180.535156 824.324219 C 1244.859375 858.082031 1311.808594 865.3125 1381.765625 843.753906 C 1429.488281 829.410156 1469.425781 802.214844 1508.769531 773.0625 C 1527.285156 759.265625 1544.871094 743.824219 1564.035156 730.046875 C 1591.492188 709.019531 1624.550781 697.21875 1658.976562 695.503906 C 1672.289062 694.875 1685.617188 693.59375 1699.265625 692.644531 C 1755.144531 688.890625 1808.816406 670.15625 1854.722656 637.925781 C 1871.226562 626.675781 1885.855469 612.777344 1897.304688 596.207031 C 1914.859375 569.414062 1921.441406 540.394531 1923.867188 508.996094 C 1925.777344 485.042969 1920.226562 461.226562 1907.777344 440.796875 C 1897.835938 423.679688 1885.933594 407.15625 1875.332031 390.667969 C 1865.359375 374.84375 1851.726562 362.496094 1835.722656 354.300781 C 1807.863281 340.289062 1779.292969 328.855469 1749.671875 320.3125 C 1710.398438 308.925781 1669.542969 308.527344 1629.285156 310.089844 C 1595.195312 311.488281 1560.757812 313.847656 1526.648438 315.894531 C 1517.226562 316.625 1508.132812 317.039062 1498.691406 318.421875 C 1458.003906 324.1875 1427.335938 343.835938 1408.539062 381.300781 C 1391.820312 413.628906 1373.835938 444.628906 1357.128906 476.308594 C 1343.816406 502.238281 1328.59375 526.820312 1306.667969 547.015625 Z M 1306.667969 547.015625 "/></g></g></g></g></svg>
